<svg width="32" height="31" viewBox="0 0 32 31" fill="none" xmlns="http://www.w3.org/2000/svg">
<path opacity="0.4" d="M14.4345 3.62591C15.2983 2.88727 16.713 2.88727 17.5894 3.62591L19.5674 5.32854C19.943 5.65405 20.6441 5.91695 21.1449 5.91695H23.2732C24.6002 5.91695 25.6894 7.00614 25.6894 8.33319V10.4615C25.6894 10.9497 25.9523 11.6633 26.2778 12.0389L27.9804 14.017C28.7191 14.8808 28.7191 16.2955 27.9804 17.1718L26.2778 19.1499C25.9523 19.5255 25.6894 20.2266 25.6894 20.7273V22.8556C25.6894 24.1827 24.6002 25.2719 23.2732 25.2719H21.1449C20.6566 25.2719 19.943 25.5348 19.5674 25.8603L17.5894 27.5629C16.7255 28.3015 15.3109 28.3015 14.4345 27.5629L12.4564 25.8603C12.0809 25.5348 11.3798 25.2719 10.879 25.2719H8.71316C7.38611 25.2719 6.29692 24.1827 6.29692 22.8556V20.7148C6.29692 20.2266 6.03402 19.5255 5.72103 19.1499L4.03092 17.1593C3.3048 16.2955 3.3048 14.8933 4.03092 14.0295L5.72103 12.0389C6.03402 11.6633 6.29692 10.9623 6.29692 10.474V8.32067C6.29692 6.99362 7.38611 5.90443 8.71316 5.90443H10.879C11.3673 5.90443 12.0809 5.64153 12.4564 5.31602L14.4345 3.62591Z" fill="#FFDC23"/>
<path d="M14.485 19.5505C14.2346 19.5505 13.9968 19.4503 13.8215 19.2751L10.7918 16.2454C10.4288 15.8823 10.4288 15.2814 10.7918 14.9183C11.1549 14.5553 11.7558 14.5553 12.1189 14.9183L14.485 17.2845L19.8684 11.9012C20.2314 11.5381 20.8323 11.5381 21.1954 11.9012C21.5585 12.2642 21.5585 12.8652 21.1954 13.2282L15.1486 19.2751C14.9733 19.4503 14.7354 19.5505 14.485 19.5505Z" fill="#FFDC23"/>
</svg>
